<svg id="Layer_1" data-name="Layer 1" xmlns="http://www.w3.org/2000/svg" viewBox="0 0 367.54 37.61"><defs><style>.cls-1{fill:#ff8300;}.cls-2{fill:#757679;}</style></defs><title>Vector Smart Object1</title><path class="cls-1" d="M296.79,310.77h0a14.18,14.18,0,1,1-28.35,0v-12.3s6.73,1.68,6.8,8.88v3.35a7.39,7.39,0,1,0,14.74,0v-7c.28-6,5.36-7.92,6.67-8.55h.14v15.61Zm-36.47-14.35a14.93,14.93,0,0,1,5.3,1V305a8.14,8.14,0,0,0-5.3-1.94,8,8,0,0,0-8.09,7.87V325.2h-6.81V299.09a10.49,10.49,0,0,1,4.59,1.37,15.07,15.07,0,0,1,10.31-4M227.8,318.77a8,8,0,1,1,8.21-8,8.1,8.1,0,0,1-8.21,8m0-22.35a14.4,14.4,0,1,0,0,28.78,15,15,0,0,0,9-3c1.53,2.49,5.82,3,5.82,3V310.81a14.6,14.6,0,0,0-14.81-14.39m118.06,22.35a8,8,0,1,1,8.2-8,8.1,8.1,0,0,1-8.2,8m0-22.35a14.4,14.4,0,1,0,0,28.78,15,15,0,0,0,9-3c1.53,2.49,5.82,3,5.82,3V310.81a14.59,14.59,0,0,0-14.8-14.39m-31.3,22.35a8,8,0,1,1,8.21-8,8.1,8.1,0,0,1-8.21,8m0-22.35a15,15,0,0,0-8.15,2.38v-2.25c-.28-6-5.2-7.93-6.51-8.55h-.15v37.29s4.44-.46,6.09-2.88a15,15,0,0,0,8.72,2.79,14.4,14.4,0,1,0,0-28.78" transform="translate(-213 -288)"/><path class="cls-2" d="M522,311.67a13.73,13.73,0,0,1,3-8.58,2.91,2.91,0,1,1,4.53,3.65,7.83,7.83,0,0,0-1.74,4.93,7.91,7.91,0,1,0,15.82,0,7.84,7.84,0,0,0-1.69-4.88,2.91,2.91,0,1,1,4.57-3.6,13.59,13.59,0,0,1,2.94,8.48,13.73,13.73,0,0,1-27.46,0" transform="translate(-213 -288)"/><path class="cls-2" d="M535.77,311.28a2.91,2.91,0,0,1-2.91-2.91v-9.14a2.91,2.91,0,1,1,5.82,0v9.14a2.91,2.91,0,0,1-2.91,2.91" transform="translate(-213 -288)"/><path class="cls-2" d="M573,300.21l-.39-.19-.61-.25-.54-.2-.66-.21c-.3-.08-.61-.16-.92-.22-.14,0-.29-.06-.43-.09l-.82-.12-.4,0c-.4,0-.81-.06-1.22-.06h0a12.1,12.1,0,0,0-1.21.06l-.41,0-.81.12-.44.09c-.31.06-.62.14-.92.22l-.66.21-.54.2-.61.25-.39.19A13.13,13.13,0,0,0,553.43,312v13.26h6.05V312a7.51,7.51,0,0,1,15,0v8.5a.32.32,0,0,0,0,.07v4.7h6V312A13.13,13.13,0,0,0,573,300.21" transform="translate(-213 -288)"/><path class="cls-2" d="M385.06,293.84H382.9a.21.21,0,0,0-.21.2V325a.21.21,0,0,0,.21.21h2.16a.2.2,0,0,0,.2-.21V294a.2.2,0,0,0-.2-.2" transform="translate(-213 -288)"/><path class="cls-2" d="M403.36,301.33c-3.75,0-6.44,1.16-8,3.36l-.35-2.74a.2.2,0,0,0-.2-.18h-1.78a.2.2,0,0,0-.2.21v23a.2.2,0,0,0,.2.21h2.1a.2.2,0,0,0,.2-.21V312.29c0-3.05.63-5.28,1.86-6.63s3.22-2,5.9-2a5.69,5.69,0,0,1,4.37,1.52c.93,1,1.41,2.65,1.41,4.9V325a.2.2,0,0,0,.2.21h2.08a.2.2,0,0,0,.2-.21v-15c0-5.72-2.7-8.61-8-8.61" transform="translate(-213 -288)"/><path class="cls-2" d="M430,314.09a25.17,25.17,0,0,0-4.57-2,17.82,17.82,0,0,1-4.94-2.38,3.35,3.35,0,0,1-1.21-2.72,2.65,2.65,0,0,1,1.55-2.4,8.93,8.93,0,0,1,4.36-.9,16.38,16.38,0,0,1,6.21,1.38h.16a.19.19,0,0,0,.11-.12l.78-1.9a.21.21,0,0,0-.11-.27,18.42,18.42,0,0,0-7.15-1.41,10.77,10.77,0,0,0-6.18,1.54,4.93,4.93,0,0,0-2.26,4.25,5.33,5.33,0,0,0,.74,2.87,6.94,6.94,0,0,0,2.17,2.1,27,27,0,0,0,4.89,2.17,15.46,15.46,0,0,1,4.56,2.29,3.44,3.44,0,0,1,1.33,2.76,3.21,3.21,0,0,1-1.67,2.84,9.5,9.5,0,0,1-5.06,1.1,16,16,0,0,1-7.23-1.71l-.09,0a.2.2,0,0,0-.11,0,.21.21,0,0,0-.1.17V324a.19.19,0,0,0,.11.18,16.13,16.13,0,0,0,7.42,1.44,11.63,11.63,0,0,0,6.78-1.7,5.67,5.67,0,0,0,2.44-4.92,5.21,5.21,0,0,0-.74-2.79,6.73,6.73,0,0,0-2.19-2.11" transform="translate(-213 -288)"/><path class="cls-2" d="M448.8,323h0a15.07,15.07,0,0,1-3.43.34,3.15,3.15,0,0,1-2.75-1.19,6.47,6.47,0,0,1-.89-3.79V304h6.54a.21.21,0,0,0,.21-.21V302a.21.21,0,0,0-.21-.21h-6.54v-5.36a.2.2,0,0,0-.21-.2H440.4a.2.2,0,0,0-.2.16l-1,5.08-3.29.92a.21.21,0,0,0-.15.2v1.23a.21.21,0,0,0,.21.21h3.2v14.65c0,2.36.5,4.13,1.5,5.25a5.93,5.93,0,0,0,4.65,1.7,11.2,11.2,0,0,0,3.58-.52.2.2,0,0,0,.14-.19v-1.69a.18.18,0,0,0-.08-.16.19.19,0,0,0-.13-.05" transform="translate(-213 -288)"/><path class="cls-2" d="M461.54,301.37a17.7,17.7,0,0,0-7.58,1.8.19.19,0,0,0-.1.26l.78,1.83a.22.22,0,0,0,.12.11h.07l.1,0a14.15,14.15,0,0,1,6.53-1.76,5,5,0,0,1,4.13,1.6,7.68,7.68,0,0,1,1.29,4.82v1.32l-4.18.13c-3.56.07-6.33.74-8.23,2a6.14,6.14,0,0,0-2.89,5.4,6.4,6.4,0,0,0,1.95,4.95,7.71,7.71,0,0,0,5.41,1.79,9.73,9.73,0,0,0,4.42-.94,11.68,11.68,0,0,0,3.49-2.94l.47,3.28a.22.22,0,0,0,.21.18h1.54a.21.21,0,0,0,.21-.21v-15.3c0-2.82-.65-4.93-1.93-6.28s-3.24-2-5.81-2m5.25,12.13v2a7.11,7.11,0,0,1-7.73,7.75,5.19,5.19,0,0,1-3.59-1.14,4.09,4.09,0,0,1-1.26-3.2,4.14,4.14,0,0,1,2-3.81c1.34-.83,3.63-1.33,6.81-1.48Z" transform="translate(-213 -288)"/><path class="cls-2" d="M485.72,301.33c-3.75,0-6.44,1.16-8,3.36l-.35-2.74a.2.2,0,0,0-.2-.18h-1.78a.21.21,0,0,0-.21.21v23a.21.21,0,0,0,.21.21h2.1a.2.2,0,0,0,.2-.21V312.29c0-3.05.63-5.28,1.86-6.63s3.21-2,5.89-2a5.7,5.7,0,0,1,4.38,1.52c.93,1,1.4,2.65,1.4,4.9V325a.21.21,0,0,0,.21.21h2.07a.21.21,0,0,0,.21-.21v-15c0-5.72-2.7-8.61-8-8.61" transform="translate(-213 -288)"/><path class="cls-2" d="M510.46,323.05a.21.21,0,0,0-.13-.05h0a15.07,15.07,0,0,1-3.43.34,3.14,3.14,0,0,1-2.75-1.19,6.47,6.47,0,0,1-.89-3.79V304h6.54a.21.21,0,0,0,.21-.21V302a.21.21,0,0,0-.21-.21h-6.54v-5.36a.21.21,0,0,0-.21-.2h-1.08a.2.2,0,0,0-.2.16l-1,5.08-3.29.92a.21.21,0,0,0-.15.2v1.23a.21.21,0,0,0,.21.21h3.2v14.65c0,2.36.5,4.13,1.5,5.25a5.91,5.91,0,0,0,4.65,1.7,11.24,11.24,0,0,0,3.58-.52.2.2,0,0,0,.14-.19v-1.69a.18.18,0,0,0-.08-.16" transform="translate(-213 -288)"/></svg>